<?xml version="1.0" encoding="UTF-8" standalone="no"?>
<svg
   xmlns:dc="http://purl.org/dc/elements/1.1/"
   xmlns:cc="http://creativecommons.org/ns#"
   xmlns:rdf="http://www.w3.org/1999/02/22-rdf-syntax-ns#"
   xmlns:svg="http://www.w3.org/2000/svg"
   xmlns="http://www.w3.org/2000/svg"
   xmlns:sodipodi="http://sodipodi.sourceforge.net/DTD/sodipodi-0.dtd"
   xmlns:inkscape="http://www.inkscape.org/namespaces/inkscape"
   enable-background="new 0 0 512 512"
   height="512px"
   id="Layer_1"
   version="1.1"
   viewBox="0 0 512 512"
   width="512px"
   xml:space="preserve"
   sodipodi:docname="search.svg"
   inkscape:version="0.92.4 (33fec40, 2019-01-16)"><metadata
     id="metadata3767"><rdf:RDF><cc:Work
         rdf:about=""><dc:format>image/svg+xml</dc:format><dc:type
           rdf:resource="http://purl.org/dc/dcmitype/StillImage" /><dc:title></dc:title></cc:Work></rdf:RDF></metadata><defs
     id="defs3765" /><sodipodi:namedview
     pagecolor="#ffffff"
     bordercolor="#666666"
     borderopacity="1"
     objecttolerance="10"
     gridtolerance="10"
     guidetolerance="10"
     inkscape:pageopacity="0"
     inkscape:pageshadow="2"
     inkscape:window-width="1366"
     inkscape:window-height="648"
     id="namedview3763"
     showgrid="false"
     inkscape:zoom="0.90234375"
     inkscape:cx="256"
     inkscape:cy="256"
     inkscape:window-x="0"
     inkscape:window-y="27"
     inkscape:window-maximized="1"
     inkscape:current-layer="Layer_1" /><path
     d="M497.913,497.913c-18.782,18.782-49.225,18.782-68.008,0l-84.862-84.863c-34.889,22.382-76.13,35.717-120.659,35.717  C100.469,448.767,0,348.312,0,224.383S100.469,0,224.384,0c123.931,0,224.384,100.452,224.384,224.383  c0,44.514-13.352,85.771-35.718,120.676l84.863,84.863C516.695,448.704,516.695,479.131,497.913,497.913z M224.384,64.109  c-88.511,0-160.274,71.747-160.274,160.273c0,88.526,71.764,160.274,160.274,160.274c88.525,0,160.273-71.748,160.273-160.274  C384.657,135.856,312.909,64.109,224.384,64.109z"
     id="path3760"
     style="fill:#ffffff" /></svg>